<svg xmlns="http://www.w3.org/2000/svg" xmlns:xlink="http://www.w3.org/1999/xlink" id="Layer_1" style="enable-background:new 0 0 128 128;" version="1.1" viewBox="0 0 128 128" xml:space="preserve"><style type="text/css">
	.st0{fill:#267CB5;}
	.st1{fill:#FFFFFF;}
</style><g><path class="st1" d="M100.3,37.6c0.4-0.4,0.4-1,0-1.4l-8.5-8.5c-0.4-0.4-1-0.4-1.4,0l-9.9,9.9l9.9,9.9L100.3,37.6z"/><path class="st1" d="M50.1,76.6c-0.3,0.8,0.5,1.5,1.3,1.3l13-4.4l23.1-23.1l-9.9-9.9L54.5,63.6L50.1,76.6z"/><path class="st1" d="M100,64H88c-0.6,0-1,0.4-1,1v22H41V41h22c0.6,0,1-0.4,1-1V28c0-0.6-0.4-1-1-1H28c-0.6,0-1,0.4-1,1v72   c0,0.6,0.4,1,1,1h72c0.6,0,1-0.4,1-1V65C101,64.4,100.6,64,100,64z"/></g></svg>